# xmcd
#
# Track frame offsets:
#	150
#	29222
#	72533
#	127779
#	212798
#	224901
#
# Disc length: 3621 seconds
#
# Revision: 1
# Processed by: cddbd v1.5.1PL2 Copyright (c) Steve Scherf et al.
# Submitted via: EasyCDDAExtractor 9.0.0.1
#
DISCID=670e2306
DTITLE=Carl Palmer - Granada Theater Dallas 30-06-06 Disc 2
DYEAR=2006
DGENRE=Hard Rock
TTITLE0=Bullfrog
TTITLE1=Toccata
TTITLE2=Canario
TTITLE3=Fanfare For The Common Man
TTITLE4=Encore Cheering
TTITLE5=Romeo and Juliet
EXTD=
EXTT0=
EXTT1=
EXTT2=
EXTT3=
EXTT4=
EXTT5=
PLAYORDER=
